<?xml version="1.0" encoding="utf-8"?>
<!-- Generator: Adobe Illustrator 22.0.0, SVG Export Plug-In . SVG Version: 6.00 Build 0)  -->
<svg version="1.0" id="图层_1" xmlns="http://www.w3.org/2000/svg" xmlns:xlink="http://www.w3.org/1999/xlink" x="0px" y="0px"
	 viewBox="0 0 32 32" style="enable-background:new 0 0 32 32;" xml:space="preserve">
<style type="text/css">
	.st0{fill:#1D1E29;}
	.st1{fill:#FFFFFF;}
	.st2{fill:#FDFDFD;}
	.st3{fill:#9FD5DE;}
	.st4{fill:#FCFCFD;}
	.st5{fill:#E6A676;}
</style>
<g>
	<path class="st0" d="M16,32c-5.3,0-10.6,0-15.8,0C0,32,0,32,0,31.9C0,21.3,0,10.7,0,0.1C0,0,0,0,0.1,0c10.6,0,21.1,0,31.7,0
		C32,0,32,0,32,0.1c0,10.6,0,21.1,0,31.7c0,0.1,0,0.1-0.1,0.1C26.6,32,21.3,32,16,32z"/>
	<g>
		<g>
			<g>
				<path class="st1" d="M8.1,25.1c-0.2-0.1-0.4-0.3-0.6-0.5c-0.1-0.2-0.2-0.5-0.2-0.8c0-0.3,0.1-0.6,0.2-0.8
					c0.1-0.2,0.3-0.4,0.6-0.5c0.2-0.1,0.5-0.2,0.8-0.2c0.2,0,0.3,0,0.5,0c0.2,0,0.3,0.1,0.4,0.1V23c-0.3-0.1-0.5-0.1-0.8-0.1
					c-0.3,0-0.5,0.1-0.7,0.2c-0.2,0.2-0.3,0.4-0.3,0.7c0,0.2,0,0.3,0.1,0.5c0.1,0.1,0.2,0.2,0.3,0.3c0.1,0.1,0.3,0.1,0.5,0.1l0.1,0
					c0.1,0,0.2,0,0.4-0.1c0.1,0,0.2-0.1,0.3-0.1v0.6c-0.1,0.1-0.2,0.1-0.4,0.1c-0.1,0-0.3,0-0.4,0C8.6,25.3,8.4,25.2,8.1,25.1z"/>
				<path class="st1" d="M10.5,25c-0.2-0.2-0.3-0.5-0.3-0.8v-1.7h0.7v1.7c0,0.1,0,0.2,0.1,0.3c0.1,0.1,0.1,0.2,0.2,0.2
					c0.1,0,0.2,0.1,0.3,0.1c0.1,0,0.2,0,0.3-0.1c0.1,0,0.2-0.1,0.2-0.2c0.1-0.1,0.1-0.2,0.1-0.3v-1.7h0.7v1.7c0,0.4-0.1,0.6-0.3,0.8
					c-0.2,0.2-0.5,0.3-0.9,0.3C11.1,25.3,10.8,25.2,10.5,25z"/>
				<path class="st1" d="M13.9,25.1c-0.2-0.1-0.4-0.3-0.6-0.5c-0.1-0.2-0.2-0.5-0.2-0.8c0-0.3,0.1-0.6,0.2-0.8
					c0.1-0.2,0.3-0.4,0.6-0.5c0.2-0.1,0.5-0.2,0.8-0.2c0.2,0,0.3,0,0.5,0c0.2,0,0.3,0.1,0.4,0.1V23c-0.3-0.1-0.5-0.1-0.8-0.1
					c-0.3,0-0.5,0.1-0.7,0.2c-0.2,0.2-0.3,0.4-0.3,0.7c0,0.2,0,0.3,0.1,0.5c0.1,0.1,0.2,0.2,0.3,0.3c0.1,0.1,0.3,0.1,0.5,0.1l0.1,0
					c0.1,0,0.2,0,0.4-0.1c0.1,0,0.2-0.1,0.3-0.1v0.6c-0.1,0.1-0.2,0.1-0.4,0.1c-0.1,0-0.3,0-0.4,0C14.4,25.3,14.1,25.2,13.9,25.1z"
					/>
				<path class="st1" d="M17.7,25.2c-0.2-0.3-0.3-0.5-0.4-0.7c-0.1-0.2-0.3-0.3-0.4-0.5h-0.2v1.1h-0.7v-2.8h0.7v1.1h0.1l0.8-1.1h0.7
					l-1,1.4c0.2,0.2,0.4,0.4,0.6,0.6c0.2,0.2,0.3,0.5,0.5,0.8H17.7z"/>
				<path class="st1" d="M19.2,25.1c-0.2-0.1-0.4-0.3-0.5-0.5c-0.1-0.2-0.2-0.5-0.2-0.8c0-0.3,0.1-0.6,0.2-0.8
					c0.1-0.2,0.3-0.4,0.5-0.5c0.2-0.1,0.5-0.2,0.8-0.2c0.3,0,0.5,0.1,0.8,0.2c0.2,0.1,0.4,0.3,0.5,0.5s0.2,0.5,0.2,0.8
					c0,0.3-0.1,0.6-0.2,0.8S21,25,20.8,25.1c-0.2,0.1-0.5,0.2-0.8,0.2C19.7,25.3,19.4,25.2,19.2,25.1z M19.5,24.5
					c0.1,0.2,0.3,0.3,0.5,0.3c0.2,0,0.4-0.1,0.5-0.3c0.1-0.2,0.2-0.4,0.2-0.7c0-0.2,0-0.4-0.1-0.5c-0.1-0.2-0.1-0.3-0.3-0.4
					c-0.1-0.1-0.2-0.1-0.4-0.1c-0.2,0-0.3,0-0.4,0.1c-0.1,0.1-0.2,0.2-0.3,0.4c-0.1,0.2-0.1,0.3-0.1,0.5
					C19.3,24.1,19.3,24.4,19.5,24.5z"/>
				<path class="st1" d="M22.4,25.1c-0.2-0.1-0.4-0.3-0.5-0.5c-0.1-0.2-0.2-0.5-0.2-0.8c0-0.3,0.1-0.6,0.2-0.8
					c0.1-0.2,0.3-0.4,0.5-0.5c0.2-0.1,0.5-0.2,0.8-0.2c0.3,0,0.5,0.1,0.8,0.2c0.2,0.1,0.4,0.3,0.5,0.5s0.2,0.5,0.2,0.8
					c0,0.3-0.1,0.6-0.2,0.8S24.2,25,24,25.1c-0.2,0.1-0.5,0.2-0.8,0.2C22.9,25.3,22.6,25.2,22.4,25.1z M22.7,24.5
					c0.1,0.2,0.3,0.3,0.5,0.3c0.2,0,0.4-0.1,0.5-0.3c0.1-0.2,0.2-0.4,0.2-0.7c0-0.2,0-0.4-0.1-0.5c-0.1-0.2-0.1-0.3-0.3-0.4
					c-0.1-0.1-0.2-0.1-0.4-0.1s-0.3,0-0.4,0.1c-0.1,0.1-0.2,0.2-0.3,0.4c-0.1,0.2-0.1,0.3-0.1,0.5C22.5,24.1,22.5,24.4,22.7,24.5z"
					/>
			</g>
		</g>
		<g>
			<path class="st2" d="M22,14c0.1,0,0.1-0.1,0.2-0.1c1-0.4,1.8-1,2.3-2c0.2-0.5,0.3-1,0.2-1.5c-0.1-0.3-0.2-0.5-0.4-0.7
				c0,0.7-0.3,1.2-0.8,1.7c-0.8,0.7-1.7,1-2.6,1.2c-0.1,0-0.1,0.1-0.1,0.1c0.1,0.6,0.1,1.2,0,1.8c-0.2,1.2-0.8,2.1-1.8,2.8
				c-0.8,0.6-1.6,0.8-2.5,0.8c-0.9,0-1.8-0.2-2.5-0.8c-1-0.7-1.5-1.6-1.8-2.8c-0.1-0.6-0.1-1.2,0-1.8c0-0.1,0-0.1-0.1-0.1
				c-1-0.2-1.9-0.5-2.6-1.2c-0.5-0.4-0.8-0.9-0.8-1.7c-0.2,0.2-0.4,0.5-0.4,0.7c-0.1,0.5,0,1,0.2,1.5c0.5,1,1.3,1.6,2.3,2
				c0.1,0,0.1,0.1,0.2,0.1c-0.9-0.1-1.8-0.3-2.5-0.9c-0.3,0.5-0.2,1.1,0.2,1.6c0.5,0.5,1.1,0.8,1.7,1c0.4,0.1,0.9,0.1,1.3,0
				c-0.7,0.4-1.3,0.6-2,0.7c0.2,0.2,0.3,0.4,0.5,0.6c0.5,0.4,1.1,0.6,1.8,0.6c0.4,0,0.7-0.2,1-0.4c0.1-0.1,0.1-0.1,0.2,0
				c0.7,0.7,1.6,1.1,2.6,1.3c0.3,0,0.5,0.1,0.8,0.1v0c0,0,0,0,0,0c0,0,0,0,0,0v0c0.3,0,0.5,0,0.8-0.1c1-0.1,1.9-0.6,2.6-1.3
				c0.1-0.1,0.1-0.1,0.2,0c0.3,0.2,0.6,0.4,1,0.4c0.7,0.1,1.3-0.1,1.8-0.6c0.2-0.2,0.4-0.3,0.5-0.6c-0.7-0.1-1.4-0.4-2-0.7
				c0.5,0.1,0.9,0.1,1.3,0c0.7-0.1,1.3-0.4,1.7-1c0.4-0.5,0.5-1.1,0.2-1.6C23.8,13.7,22.9,13.9,22,14z"/>
			<path class="st2" d="M13.9,5.8c0,0,0,0.8,1.2,1.2C16.3,7.4,17,7.9,17,9l-1.2,0.2c0,0,0.1-0.9-1.3-1.4S13.9,5.8,13.9,5.8z"/>
			<g>
				<path class="st3" d="M14.6,9.2c0,0-0.1,0-0.1,0c-1.2,0-2.2,1-2.2,2.2c0,0.1,0,0.2,0,0.3C12.7,10.6,13.5,9.7,14.6,9.2z"/>
				<path class="st3" d="M18.2,9.2c0,0,0.1,0,0.1,0c1.2,0,2.2,1,2.2,2.2c0,0.1,0,0.2,0,0.3C20.1,10.6,19.3,9.7,18.2,9.2z"/>
				<path class="st0" d="M16.4,8.9c-0.6,0-1.2,0.1-1.8,0.4c-1.1,0.5-1.9,1.4-2.4,2.5c-0.2,0.5-0.3,1.1-0.3,1.7c0,2.5,2,4.6,4.5,4.6
					c2.5,0,4.5-2.1,4.5-4.6S18.9,8.9,16.4,8.9z"/>
			</g>
			<g>
				<circle class="st4" cx="14.4" cy="11.9" r="1.3"/>
				<circle class="st0" cx="14.4" cy="11.9" r="0.6"/>
				<circle class="st4" cx="18.4" cy="11.9" r="1.3"/>
				<circle class="st0" cx="18.4" cy="11.9" r="0.6"/>
			</g>
			<path class="st5" d="M16.3,14l-0.6-1c0,0,0-0.1,0-0.1l0.6-0.6c0,0,0.1,0,0.1,0l0.6,0.6c0,0,0,0.1,0,0.1l-0.6,1
				C16.4,14.1,16.4,14.1,16.3,14z"/>
			<circle class="st3" cx="14.6" cy="15.8" r="1"/>
			<circle class="st3" cx="18.2" cy="15.8" r="1"/>
			<g>
				<path class="st2" d="M14.9,20c-0.1,0.2-0.2,0.2-0.4,0.2c-0.1-0.1-0.2-0.2-0.1-0.4c0.1-0.2,0.3-0.4,0.4-0.4
					C15,19.5,15,19.8,14.9,20z"/>
				<path class="st2" d="M15.4,20c0.1,0.2,0.2,0.2,0.4,0.2c0.1-0.1,0.2-0.2,0.1-0.4c-0.1-0.2-0.3-0.4-0.4-0.4
					C15.3,19.5,15.3,19.8,15.4,20z"/>
				<path class="st2" d="M17.4,20c-0.1,0.2-0.2,0.2-0.4,0.2s-0.2-0.2-0.1-0.4c0.1-0.2,0.3-0.4,0.4-0.4C17.5,19.5,17.5,19.8,17.4,20z
					"/>
				<path class="st2" d="M17.9,20c0.1,0.2,0.2,0.2,0.4,0.2s0.2-0.2,0.1-0.4c-0.1-0.2-0.3-0.4-0.4-0.4C17.8,19.5,17.8,19.8,17.9,20z"
					/>
			</g>
			<g>
				<g>
					<g>
						<path class="st0" d="M18.2,15.2c-0.1,0-0.3,0.1-0.3,0.2v0c0,0.1,0,0.1,0.1,0.2l0,0c0.2,0.2,0.4,0,0.4-0.2v0
							C18.5,15.3,18.4,15.2,18.2,15.2L18.2,15.2z"/>
					</g>
					<g>
						<path class="st0" d="M18.2,15.9c-0.1,0-0.3,0.1-0.3,0.2v0c0,0.1,0,0.1,0.1,0.2l0,0c0.2,0.2,0.4,0,0.4-0.2v0
							C18.5,16,18.4,15.9,18.2,15.9L18.2,15.9z"/>
					</g>
				</g>
				<g>
					<g>
						<path class="st0" d="M18.8,15.8c0-0.1-0.1-0.3-0.2-0.3h0c-0.1,0-0.1,0-0.2,0.1l0,0c-0.2,0.2,0,0.4,0.2,0.4h0
							C18.7,16,18.8,15.9,18.8,15.8L18.8,15.8z"/>
					</g>
					<g>
						<path class="st0" d="M18.1,15.8c0-0.1-0.1-0.3-0.2-0.3h0c-0.1,0-0.1,0-0.2,0.1l0,0c-0.2,0.2,0,0.4,0.2,0.4h0
							C18,16,18.1,15.9,18.1,15.8L18.1,15.8z"/>
					</g>
				</g>
			</g>
			<g>
				<g>
					<path class="st0" d="M14.6,15.2c-0.1,0-0.3,0.1-0.3,0.2v0.7c0,0.1,0,0.1,0.1,0.2v0c0.2,0.2,0.4,0,0.4-0.2v-0.7
						C14.8,15.3,14.7,15.2,14.6,15.2L14.6,15.2z"/>
				</g>
				<g>
					<path class="st0" d="M15.2,15.8c0-0.1-0.1-0.3-0.2-0.3h-0.7c-0.1,0-0.1,0-0.2,0.1l0,0c-0.2,0.2,0,0.4,0.2,0.4h0.7
						C15,16,15.2,15.9,15.2,15.8L15.2,15.8z"/>
				</g>
			</g>
		</g>
	</g>
</g>
</svg>
