<svg id="图层_1" data-name="图层 1" xmlns="http://www.w3.org/2000/svg" viewBox="0 0 32 32"><defs><style>.cls-1{fill:#1d1e29;}.cls-2{fill:#fdfdfd;}.cls-3{fill:#9fd5de;}.cls-4{fill:#fcfcfd;}.cls-5{fill:#e6a676;}</style></defs><title>LOGO</title><path class="cls-1" d="M16,32H.14C0,32,0,32,0,31.86V.14C0,0,0,0,.14,0H31.86C32,0,32,0,32,.14V31.86c0,.11,0,.14-.14.14Z" transform="translate(0 0)"/><path class="cls-2" d="M24.06,17.41c.1-.05.21-.08.31-.12a5.35,5.35,0,0,0,3.26-2.81,3.26,3.26,0,0,0,.29-2.19,2.06,2.06,0,0,0-.64-1.07,2.93,2.93,0,0,1-1.14,2.37,7.61,7.61,0,0,1-3.79,1.72c-.14,0-.15.08-.13.2a8.08,8.08,0,0,1,0,2.55,6.24,6.24,0,0,1-2.53,4A6.13,6.13,0,0,1,16,23.23a6.13,6.13,0,0,1-3.65-1.13,6.24,6.24,0,0,1-2.53-4,8.08,8.08,0,0,1,0-2.55c0-.12,0-.17-.13-.2a7.61,7.61,0,0,1-3.79-1.72,2.93,2.93,0,0,1-1.14-2.37,2.06,2.06,0,0,0-.64,1.07,3.26,3.26,0,0,0,.29,2.19,5.35,5.35,0,0,0,3.26,2.81c.1,0,.21.07.31.12a6.14,6.14,0,0,1-3.61-1.27,2.05,2.05,0,0,0,.27,2.32,4.19,4.19,0,0,0,2.48,1.39A5.9,5.9,0,0,0,9,19.9a9.72,9.72,0,0,1-2.95,1,3.71,3.71,0,0,0,.78.8,3.47,3.47,0,0,0,2.58.81A2.86,2.86,0,0,0,10.85,22c.11-.08.16-.1.27,0a6.48,6.48,0,0,0,3.71,1.85,7.62,7.62,0,0,0,1.15.09h0a7.62,7.62,0,0,0,1.15-.09A6.48,6.48,0,0,0,20.88,22c.11-.11.16-.09.27,0a2.86,2.86,0,0,0,1.43.58,3.47,3.47,0,0,0,2.58-.81,3.71,3.71,0,0,0,.78-.8,9.72,9.72,0,0,1-3-1,5.9,5.9,0,0,0,1.93,0,4.19,4.19,0,0,0,2.48-1.39,2.05,2.05,0,0,0,.27-2.32A6.14,6.14,0,0,1,24.06,17.41Z" transform="translate(0 0)"/><path class="cls-2" d="M12.38,5.7s-.05,1.18,1.74,1.69,2.72,1.32,2.75,2.81l-1.76.35s.2-1.33-1.81-2S12.38,5.7,12.38,5.7Z" transform="translate(0 0)"/><path class="cls-3" d="M13.42,10.57h-.19A3.24,3.24,0,0,0,10,13.8a2.56,2.56,0,0,0,0,.39A6.57,6.57,0,0,1,13.42,10.57Z" transform="translate(0 0)"/><path class="cls-3" d="M18.57,10.57h.19A3.24,3.24,0,0,1,22,13.8a2.56,2.56,0,0,1,0,.39A6.57,6.57,0,0,0,18.57,10.57Z" transform="translate(0 0)"/><path class="cls-1" d="M16,10a6.35,6.35,0,0,0-2.58.55A6.57,6.57,0,0,0,10,14.19a6.68,6.68,0,0,0-.46,2.46A6.53,6.53,0,0,0,16,23.28a6.53,6.53,0,0,0,6.44-6.63A6.54,6.54,0,0,0,16,10Z" transform="translate(0 0)"/><circle class="cls-4" cx="13.06" cy="14.47" r="1.83"/><circle class="cls-1" cx="13.06" cy="14.47" r="0.92"/><circle class="cls-4" cx="18.94" cy="14.47" r="1.83"/><circle class="cls-1" cx="18.94" cy="14.47" r="0.92"/><path class="cls-5" d="M15.88,17.47,15,16.1a.15.15,0,0,1,0-.19l.92-.85a.15.15,0,0,1,.2,0l.92.85a.15.15,0,0,1,0,.19l-.91,1.37A.15.15,0,0,1,15.88,17.47Z" transform="translate(0 0)"/><circle class="cls-3" cx="13.39" cy="20.01" r="1.51"/><circle class="cls-3" cx="18.61" cy="20.01" r="1.51"/><path class="cls-2" d="M13.83,26c-.13.29-.32.32-.52.24a.37.37,0,0,1-.19-.54c.13-.29.45-.6.64-.52S14,25.73,13.83,26Z" transform="translate(0 0)"/><path class="cls-2" d="M14.57,26a.36.36,0,0,0,.51.24.36.36,0,0,0,.19-.54c-.12-.29-.44-.6-.64-.52S14.44,25.73,14.57,26Z" transform="translate(0 0)"/><path class="cls-2" d="M17.43,26a.36.36,0,0,1-.51.24.36.36,0,0,1-.19-.54c.12-.29.44-.6.64-.52S17.56,25.73,17.43,26Z" transform="translate(0 0)"/><path class="cls-2" d="M18.17,26c.13.29.32.32.52.24a.37.37,0,0,0,.19-.54c-.13-.29-.45-.6-.64-.52S18.05,25.73,18.17,26Z" transform="translate(0 0)"/><path class="cls-1" d="M18.62,19.18a.36.36,0,0,0-.36.35v0a.35.35,0,0,0,.1.24h0a.35.35,0,0,0,.6-.24v0a.34.34,0,0,0-.34-.35Z" transform="translate(0 0)"/><path class="cls-1" d="M18.62,20.16a.36.36,0,0,0-.36.35v0a.35.35,0,0,0,.1.24h0a.35.35,0,0,0,.6-.24v0a.34.34,0,0,0-.34-.35Z" transform="translate(0 0)"/><path class="cls-1" d="M19.44,20a.36.36,0,0,0-.35-.36h0a.35.35,0,0,0-.25.1h0a.35.35,0,0,0,.25.6h0a.35.35,0,0,0,.35-.34Z" transform="translate(0 0)"/><path class="cls-1" d="M18.46,20a.36.36,0,0,0-.35-.36h0a.35.35,0,0,0-.25.1h0a.35.35,0,0,0,.25.6h0a.35.35,0,0,0,.35-.34Z" transform="translate(0 0)"/><path class="cls-1" d="M13.4,19.18a.36.36,0,0,0-.36.35v1a.35.35,0,0,0,.1.24h0a.35.35,0,0,0,.6-.24v-1a.34.34,0,0,0-.34-.35Z" transform="translate(0 0)"/><path class="cls-1" d="M14.22,20a.36.36,0,0,0-.35-.36h-1a.35.35,0,0,0-.25.1h0a.35.35,0,0,0,.25.6h1a.35.35,0,0,0,.35-.34Z" transform="translate(0 0)"/></svg>